<?xml version="1.0" encoding="utf-8"?>
<!-- Generator: Adobe Illustrator 24.0.1, SVG Export Plug-In . SVG Version: 6.00 Build 0)  -->
<svg version="1.1" id="图层_1" xmlns="http://www.w3.org/2000/svg" xmlns:xlink="http://www.w3.org/1999/xlink" x="0px" y="0px"
	 viewBox="0 0 24 24" style="enable-background:new 0 0 24 24;" xml:space="preserve">
<style type="text/css">
	.st0{display:none;}
</style>
<title>Bilibili icon</title>
<path class="st0" d="M17.8,4.7h0.9c1.5,0.1,2.8,0.6,3.8,1.6c1,1,1.5,2.2,1.6,3.8v7.4c0,1.5-0.6,2.8-1.6,3.8s-2.3,1.5-3.8,1.6H5.3
	c-1.5,0-2.8-0.6-3.8-1.6S0,18.9,0,17.3V10c0-1.5,0.6-2.8,1.6-3.8c1-1,2.3-1.5,3.8-1.6h0.8L4.9,3.5C4.7,3.3,4.6,3,4.6,2.6
	c0-0.4,0.1-0.7,0.4-0.9l0,0c0.3-0.2,0.6-0.4,0.9-0.4s0.7,0.1,0.9,0.4l2.9,2.7c0.1,0.1,0.1,0.1,0.2,0.2h4.3c0-0.1,0.1-0.2,0.2-0.2
	l2.9-2.7c0.3-0.2,0.6-0.4,0.9-0.4s0.7,0.2,0.9,0.4s0.4,0.6,0.4,0.9c0,0.4-0.1,0.7-0.4,0.9L17.8,4.7z M5.3,7.2C4.6,7.3,4,7.5,3.5,8
	C2.9,8.5,2.7,9.1,2.7,9.9v7.5c0,0.8,0.3,1.4,0.8,1.9c0.5,0.5,1.1,0.8,1.9,0.8h13.3c0.7,0,1.4-0.3,1.9-0.8c0.5-0.5,0.8-1.1,0.8-1.9
	V9.9c0-0.8-0.3-1.4-0.8-1.9c-0.5-0.5-1.1-0.8-1.9-0.8H5.3z M8,11.1c0.4,0,0.7,0.1,0.9,0.4c0.3,0.2,0.4,0.6,0.4,1v1.2
	c0,0.4-0.1,0.7-0.4,1c-0.2,0.3-0.6,0.4-0.9,0.4s-0.7-0.1-0.9-0.4c-0.3-0.2-0.4-0.6-0.4-1v-1.2c0-0.4,0.1-0.7,0.4-0.9
	C7.3,11.2,7.6,11.1,8,11.1z M16,11.1c0.4,0,0.7,0.1,0.9,0.4c0.3,0.2,0.4,0.6,0.4,1v1.2c0,0.4-0.1,0.7-0.4,1
	c-0.2,0.3-0.6,0.4-0.9,0.4s-0.7-0.1-0.9-0.4c-0.3-0.2-0.4-0.6-0.4-1v-1.2c0-0.4,0.1-0.7,0.4-1C15.3,11.2,15.6,11.1,16,11.1z"/>
<g id="_x36_846e2ec-2cb3-4081-a396-06c80091ceff" transform="matrix(1.0913787841796876,0,0,1.0913787841796876,-10.533772591638268,0.34972255666379937)">
	<path d="M13.6,15.6c-0.1,0.2-1.9,3.9-2.1,4.5c1.8,0.1,4.5,0.4,7.4,0.6l-2.5-5.1L13.6,15.6z M19.7,20.8l0.5,0
		c-1.1-1.5-2.1-2.8-2.1-2.8S18.8,19.3,19.7,20.8z"/>
	<path d="M27.9,7.2C27.7,7,27,6,26.8,5.7c-0.4-0.5-0.3-0.7-0.1-1c0.1-0.2-0.3-0.6-0.3-0.8c-0.1-0.8-0.4-1.4-0.7-1.8
		c0.3-0.2,0.6-0.5,0.6-0.8c-0.1-0.2-0.4-0.2-0.6-0.2c0,0,0-0.1,0-0.1c-0.6-0.8-2.8-1.2-3.8-1.2c-3,0-4.3,0.5-5.1,3.3
		c-0.1,0.4-0.2,0.9-0.2,1.3c-0.1,0.1-0.2,0.2-0.2,0.2c-0.3,0.4-0.3,0.7-0.1,0.9c0,0,0.2,0.2-0.1,0.4c-0.2,0.2-0.5,0.4-0.7,0.8
		L15.8,7C16,6.3,16.5,6,16.7,6.2c0,0.1,0.1,0.1,0.1,0.2c0.2,0.7,0.6,1.4,1,2c1.1,1.4,0.4,2.7-0.5,3.8c1.5,1.7,3.7,4.1,5,5.3
		c-2.4-1.5-5.5-5.2-5.5-5.2l-1,0.7c1.2,1.2,5.8,5.8,7.4,6.2c1,0.2,1.6-0.4,1.9-1.1c0.1,0,0.3,0,0.4,0c0.1,0,0.1,0,0.2-0.1
		c0,0.2-0.1,0.5-0.1,0.6c-0.1,0.8-0.5,1.6-1.5,1.7c-2.3,0.1-6.7-5.1-8.2-6.9l-0.7,0.4l1.2,0.9l-1.7-0.9l-0.4,0.6l0.2,0.1l2.1,0.8
		c0,0,2.7,3.1,4.9,5.8l4.6,0.4l1.7,0.1l-2-3.6c0.4-0.2,0.5-0.8,0.3-1.4c-0.3-0.7-1-1.2-1.6-1.1c-0.1,0-0.2,0.1-0.3,0.1
		c-0.1-0.1-0.2-0.3-0.3-0.4c-0.4-0.7-1.1-1.1-1-2.6c0.2-2.5,2.8-1.2,3.5-1.6c0.7-0.4,0.3-0.9,0.3-1.2c0-0.6,0.4-0.5,0.4-0.6
		c0-0.3-0.2-0.3-0.2-0.3c0-0.1,0.4-0.2,0.3-0.3C27.2,8.3,27,8,27,7.9C26.9,7.6,28.1,7.6,27.9,7.2L27.9,7.2z M24.9,15.8
		c0.3-0.1,0.7,0.2,0.9,0.6c0.2,0.4,0.1,0.8-0.3,0.9c-0.3,0.1-0.7-0.2-0.9-0.6C24.5,16.3,24.6,15.9,24.9,15.8z M24.1,17.2
		c0.1,0.2,0.3,0.4,0.5,0.5c-0.2,0.2-0.5,0.3-0.9,0.3C23.8,17.8,24,17.6,24.1,17.2z M25,1.5c0.4-0.2,1.1-0.2,1.1-0.1
		c0,0.1-0.5,0.6-0.9,0.7c-0.4,0.2-0.5,0.1-0.6-0.1l0,0C24.6,1.9,24.6,1.7,25,1.5z M23.6,1.8c0.2-0.3,0.8-0.7,0.9-0.7
		c0.1,0.1-0.1,0.7-0.4,1.1c-0.2,0.3-0.4,0.3-0.6,0.2C23.4,2.3,23.4,2.1,23.6,1.8z M22.3,2.3c0.3-0.4,0.9-0.8,1-0.7
		c0.1,0.1-0.1,0.8-0.4,1.1c-0.3,0.4-0.5,0.3-0.6,0.3C22.1,2.9,22,2.7,22.3,2.3z M20.9,2.9c0.3-0.4,0.9-0.8,1-0.8
		C22,2.2,21.8,3,21.5,3.4c-0.3,0.4-0.5,0.4-0.6,0.3C20.7,3.5,20.6,3.3,20.9,2.9z M19.4,3.6c0.3-0.4,1-0.8,1.1-0.8
		c0.1,0.1-0.1,0.9-0.4,1.3c-0.3,0.4-0.5,0.4-0.7,0.3C19.2,4.2,19.1,4,19.4,3.6z M18,4.2c0.3-0.4,1-0.9,1.1-0.8
		c0.1,0.1-0.1,0.9-0.4,1.3c-0.3,0.4-0.5,0.4-0.7,0.3C17.8,4.8,17.7,4.6,18,4.2z M16.5,5.6c-0.2-0.1-0.2-0.4,0-0.8
		c0.3-0.4,1-0.9,1.1-0.8c0.1,0.1-0.1,0.9-0.4,1.3C16.9,5.7,16.6,5.7,16.5,5.6z M17.4,6.4c-0.5-0.1-0.6-0.3-0.6-0.5l0,0
		c0-0.2,0.2-0.4,0.7-0.3C18,5.6,18.8,6,18.8,6.1C18.8,6.2,18,6.4,17.4,6.4z M18.9,5.7c-0.5-0.1-0.6-0.3-0.6-0.5l0,0
		c0-0.2,0.2-0.4,0.7-0.3c0.5,0.1,1.3,0.4,1.3,0.5C20.2,5.6,19.4,5.8,18.9,5.7z M20.3,5c-0.5-0.1-0.6-0.3-0.6-0.4l0,0
		c0-0.2,0.2-0.4,0.7-0.3c0.5,0.1,1.2,0.4,1.2,0.5C21.6,4.9,20.8,5.1,20.3,5z M21.7,4.4c-0.5,0-0.6-0.2-0.6-0.4l0,0
		c0-0.2,0.2-0.3,0.6-0.3C22.3,3.7,23,4,23,4.1C23,4.2,22.2,4.4,21.7,4.4z M23.1,3.6c-0.4,0-0.5-0.2-0.5-0.4l0,0
		c0-0.2,0.2-0.3,0.6-0.3c0.4,0,1.1,0.4,1.1,0.5C24.2,3.5,23.5,3.7,23.1,3.6z M24.4,3c-0.4,0-0.5-0.2-0.5-0.4l0,0
		c0-0.2,0.2-0.3,0.6-0.3c0.4,0,1,0.4,1,0.4C25.5,2.9,24.8,3.1,24.4,3z"/>
</g>
</svg>
