<svg data-v-423bf9ae="" xmlns="http://www.w3.org/2000/svg" viewBox="0 0 389 108" class="iconLeft"><!----><!----><!----><g data-v-423bf9ae="" id="ab371bd3-19e6-49dd-8c89-29b6490d7e47" fill="black" transform="matrix(5.524861567945867,0,0,5.524861567945867,96.43826905327532,8.958960773770585)"><path d="M1.12 12.22C1.12 13.16 1.76 13.44 2.38 13.44C3.58 13.44 3.93 12.57 3.93 12.57L3.88 12.53C3.88 12.53 3.63 12.73 3.35 12.73C2.86 12.73 2.73 12.28 2.72 11.80C2.67 10.57 2.66 9.30 2.66 8.05C2.66 6.57 2.72 5.10 2.72 3.68C2.72 2.81 1.85 2.66 0.91 2.65L0.87 2.70C0.87 2.70 1.05 2.98 1.12 4.27C1.16 5.17 1.19 6.43 1.19 7.74C1.19 9.37 1.12 11.07 1.12 12.22ZM5.99 4.97C6.51 4.97 6.94 4.54 6.94 4.03C6.94 3.51 6.51 3.08 5.99 3.08C5.49 3.08 5.05 3.51 5.05 4.03C5.05 4.54 5.49 4.97 5.99 4.97ZM5.22 12.31C5.22 13.15 5.87 13.44 6.48 13.44C7.69 13.44 8.04 12.57 8.04 12.57L7.98 12.53C7.98 12.53 7.73 12.73 7.45 12.73C6.76 12.73 6.75 11.89 6.75 11.26C6.75 10.22 6.82 8.54 6.82 7.06C6.82 6.50 6.26 6.16 5.63 6.16C5.40 6.16 5.18 6.22 4.94 6.29C4.96 6.29 5.28 6.72 5.28 9.91C5.28 10.70 5.22 11.51 5.22 12.31ZM9.23 12.24C9.23 13.08 10.28 13.51 11.44 13.51C14.22 13.51 15.55 11.72 15.55 9.28C15.55 7.50 14.57 6.09 12.98 6.09C11.27 6.09 10.72 7.20 10.72 7.20L10.68 7.18C10.68 7.18 10.82 6.03 10.82 4.94C10.82 3.28 10.75 2.66 8.99 2.65L8.95 2.70C9.23 2.98 9.24 5.60 9.24 6.89C9.24 7.92 9.25 9.02 9.25 10.05C9.25 10.75 9.23 11.47 9.23 12.24ZM11.63 12.87C10.74 12.87 10.70 11.82 10.70 10.60C10.70 9.94 10.70 9.28 10.77 8.68C10.89 7.62 11.52 6.99 12.36 6.99C13.33 6.99 13.87 8.32 13.87 9.60C13.87 11.21 13.15 12.87 11.63 12.87ZM20.44 13.30C20.78 13.37 21.14 13.44 21.43 13.44C21.92 13.44 22.32 13.24 22.32 12.49C22.32 11.16 22.26 10.21 22.26 8.95C22.26 7.67 23.07 7.01 23.66 7.01C24.86 7.01 24.89 7.91 24.89 8.83C24.89 10.26 24.85 11.16 24.85 12.36C24.85 13.33 25.37 13.37 25.87 13.44C26.10 13.19 26.42 12.98 26.42 11.98C26.42 11.90 26.39 9.51 26.39 9.48C26.39 8.81 26.60 7.01 27.87 7.01C29.04 7.01 29.06 7.91 29.06 8.83C29.06 10.26 29.02 11.10 29.02 12.31C29.02 13.15 29.67 13.44 30.28 13.44C31.49 13.44 31.84 12.57 31.84 12.57L31.78 12.53C31.78 12.53 31.53 12.73 31.25 12.73C30.56 12.73 30.55 11.89 30.55 11.26C30.55 10.05 30.60 9.13 30.60 8.11C30.60 7.13 30.41 6.16 28.56 6.16C27.66 6.16 26.66 6.61 26.35 7.29L26.29 7.28C26.24 6.66 25.70 6.16 24.39 6.16C23.49 6.16 22.48 6.61 22.22 7.29L22.16 7.28C22.16 7.28 22.22 7.11 22.22 6.93C22.22 6.50 21.77 6.16 21.13 6.16C20.90 6.16 20.68 6.22 20.44 6.29C20.44 6.29 20.65 6.41 20.72 7.77C20.75 8.44 20.78 9.17 20.78 9.87C20.78 12.38 20.54 13.26 20.44 13.30ZM33.84 4.97C34.36 4.97 34.79 4.54 34.79 4.03C34.79 3.51 34.36 3.08 33.84 3.08C33.33 3.08 32.90 3.51 32.90 4.03C32.90 4.54 33.33 4.97 33.84 4.97ZM33.07 12.31C33.07 13.15 33.71 13.44 34.33 13.44C35.53 13.44 35.88 12.57 35.88 12.57L35.83 12.53C35.83 12.53 35.57 12.73 35.29 12.73C34.61 12.73 34.59 11.89 34.59 11.26C34.59 10.22 34.66 8.54 34.66 7.06C34.66 6.50 34.10 6.16 33.47 6.16C33.25 6.16 33.03 6.22 32.79 6.29C32.80 6.29 33.12 6.72 33.12 9.91C33.12 10.70 33.07 11.51 33.07 12.31ZM36.96 13.30C37.30 13.37 37.66 13.44 37.95 13.44C38.44 13.44 38.84 13.24 38.84 12.49C38.84 11.16 38.78 10.21 38.78 8.95C38.78 7.63 39.70 6.94 40.46 6.94C41.66 6.94 41.69 7.87 41.69 8.83C41.69 10.26 41.65 11.10 41.65 12.31C41.65 13.15 42.29 13.44 42.91 13.44C44.11 13.44 44.46 12.57 44.46 12.57L44.41 12.53C44.41 12.53 44.16 12.73 43.88 12.73C43.19 12.73 43.18 11.89 43.18 11.26C43.18 10.05 43.23 9.13 43.23 8.11C43.23 7.08 43.04 6.09 41.19 6.09C40.18 6.09 39.06 6.57 38.74 7.29L38.68 7.28C38.68 7.28 38.74 7.11 38.74 6.93C38.74 6.50 38.29 6.16 37.65 6.16C37.42 6.16 37.20 6.22 36.96 6.29C36.96 6.29 37.17 6.41 37.24 7.77C37.27 8.44 37.30 9.17 37.30 9.87C37.30 12.38 37.06 13.26 36.96 13.30ZM45.18 10.29C45.18 12.19 46.21 13.51 47.82 13.51C49.43 13.51 50.01 12.40 50.01 12.40L50.06 12.43C50.08 13.22 50.68 13.44 51.25 13.44C52.46 13.44 52.81 12.57 52.81 12.57L52.75 12.53C52.75 12.53 52.50 12.73 52.22 12.73C51.73 12.73 51.60 12.28 51.59 11.80C51.55 10.57 51.52 9.30 51.52 8.05C51.52 6.37 51.59 5.03 51.59 3.68C51.59 2.81 50.72 2.66 49.78 2.65L49.74 2.70C49.74 2.70 49.92 2.98 49.99 4.27C50.02 4.82 50.05 5.49 50.05 6.22C49.81 6.17 49.56 6.15 49.29 6.15C46.54 6.15 45.18 7.90 45.18 10.29ZM48.41 12.61C47.12 12.61 46.86 10.91 46.86 9.94C46.86 8.37 47.61 6.80 49.10 6.80C49.60 6.80 50.06 6.87 50.06 7.31L50.06 8.61C50.06 9.09 50.04 9.86 50.02 10.32C49.99 11.28 49.63 12.61 48.41 12.61Z"></path></g><!----><g data-v-423bf9ae="" id="6846e2ec-2cb3-4081-a396-06c80091ceff" transform="matrix(1.0913787841796876,0,0,1.0913787841796876,-10.533772591638268,0.34972255666379937)" stroke="none" fill="black"><path d="M19.506 72.277c-.513 1.061-8.681 17.964-9.533 20.366 8.139.673 20.547 1.705 33.812 2.811L32.234 72.352l-12.728-.075zM46.945 95.719l2.443.203c-5.003-6.858-9.357-12.753-9.357-12.753s3.202 5.792 6.914 12.55z"></path><path d="M84.304 33.886c-.682-1.179-3.746-5.455-4.807-6.878-1.631-2.188-1.207-3.027-.283-4.64.457-.796-1.338-2.764-1.436-3.581-.428-3.548-1.637-6.185-3.238-8.196 1.375-.969 2.939-2.397 2.697-3.495-.355-.798-1.598-.912-2.902-.767a.979.979 0 0 0-.17-.356C71.222 2.109 61.458.572 56.776.553 43.087.495 37.271 2.724 33.738 15.606a25.918 25.918 0 0 0-.91 5.967c-.438.447-.77.827-.926 1.042-1.255 1.727-1.323 3.173-.602 4.197 0 0 .833.99-.454 1.816-1.068.686-2.444 1.93-3.15 3.555l1.58.683c1.021-3.144 3.48-4.288 4.125-3.785.105.271.26.524.465.752a27.448 27.448 0 0 0 4.613 9.069c4.914 6.391 1.662 12.521-2.385 17.195 6.792 7.59 16.993 18.75 22.875 24.048-10.755-6.807-25.172-23.632-25.172-23.632l-4.432 3.214c5.493 5.594 26.382 26.462 33.825 28.029 4.449.936 7.168-1.937 8.756-4.929a4.59 4.59 0 0 0 1.801.009c.338-.069.65-.178.936-.321-.176 1.101-.352 2.056-.488 2.558-.492 3.702-2.152 7.345-6.738 7.53-10.376.421-30.581-23.305-37.242-31.503l-3.399 1.683 5.67 4.286-7.689-3.949-2.029 2.887.768.339 9.512 3.754s12.167 14.346 22.403 26.329l21.038 1.756 7.604.591-9.273-16.333c1.873-1.055 2.498-3.685 1.357-6.435-1.34-3.224-4.598-5.392-7.279-4.842a3.603 3.603 0 0 0-1.49.672 34.7 34.7 0 0 1-1.311-1.842c-2.035-3.107-4.984-4.807-4.371-11.856.982-11.303 12.754-5.322 16.139-7.353 3.15-1.889 1.266-3.969 1.312-5.459.088-2.748 1.627-2.182 1.729-2.903.164-1.175-.885-1.271-.887-1.45.01-.47 1.717-.898 1.43-1.573-.238-.557-.979-1.997-1.197-2.567-.481-1.252 5.005-1.305 4.052-2.949zM70.765 73.025c1.422-.292 3.209 1.005 3.994 2.896.785 1.89.271 3.659-1.15 3.95s-3.211-1.006-3.994-2.896c-.788-1.89-.272-3.659 1.15-3.95zm-3.59 6.32a8.617 8.617 0 0 0 2.221 2.344c-.854.987-2.184 1.559-4.244 1.197.898-.613 1.55-1.9 2.023-3.541zm4.076-71.307c1.754-.781 4.941-.989 5.092-.647.096.424-2.152 2.6-3.881 3.37-1.701.757-2.469.29-2.795-.372l-.016-.036c-.267-.674-.101-1.558 1.6-2.315zm-6.221.999c1.111-1.531 3.709-3.276 4.074-3.116.332.24-.535 3.314-1.664 4.868-1.094 1.506-1.992 1.484-2.596 1.083-.611-.48-.909-1.329.186-2.835zm-6.08 2.567c1.182-1.626 3.941-3.481 4.328-3.312.354.255-.566 3.521-1.766 5.172-1.164 1.6-2.117 1.577-2.759 1.15-.649-.508-.965-1.409.197-3.01zm-6.43 2.861c1.256-1.728 4.188-3.699 4.599-3.519.375.271-.603 3.741-1.876 5.495-1.234 1.7-2.25 1.676-2.931 1.223-.691-.54-1.027-1.499.208-3.199zm-6.596 2.869c1.307-1.799 4.359-3.851 4.788-3.663.391.282-.627 3.896-1.954 5.722-1.286 1.77-2.342 1.745-3.051 1.273-.72-.564-1.069-1.562.217-3.332zm-6.57 2.817c1.35-1.859 4.503-3.978 4.945-3.784.404.291-.647 4.023-2.018 5.909-1.328 1.828-2.419 1.802-3.151 1.315-.742-.581-1.104-1.612.224-3.44zm-6.92 6.475c-.748-.586-1.111-1.623.226-3.461 1.358-1.869 4.529-4.001 4.974-3.806.406.292-.652 4.047-2.03 5.944-1.336 1.84-2.434 1.813-3.17 1.323zm4.463 3.504c-2.261-.237-2.788-1.202-2.729-2.101l.006-.048c.128-.875.843-1.708 3.104-1.471 2.332.245 5.83 1.972 5.782 2.425-.159.506-3.865 1.437-6.163 1.195zm6.67-3.056c-2.248-.235-2.771-1.194-2.713-2.088l.006-.047c.127-.87.838-1.698 3.085-1.462 2.318.244 5.795 1.959 5.748 2.411-.157.502-3.841 1.427-6.126 1.186zm6.435-3.036c-2.176-.229-2.683-1.156-2.627-2.022l.006-.045c.123-.842.812-1.644 2.987-1.416 2.245.236 5.611 1.898 5.566 2.334-.154.486-3.72 1.382-5.932 1.149zm6.435-3.135c-2.091-.219-2.577-1.11-2.522-1.942l.006-.044c.117-.809.779-1.579 2.869-1.36 2.155.227 5.388 1.823 5.345 2.242-.148.468-3.573 1.328-5.698 1.104zm6.201-3.239c-1.969-.207-2.426-1.045-2.375-1.828l.006-.042c.111-.761.732-1.486 2.701-1.279 2.027.213 5.07 1.716 5.029 2.11-.139.44-3.363 1.249-5.361 1.039zm5.861-2.924c-1.852-.194-2.281-.983-2.234-1.721l.006-.039c.104-.716.689-1.399 2.541-1.204 1.91.201 4.773 1.614 4.734 1.986-.129.415-3.164 1.176-5.047.978z"></path></g><!----></svg>